<?xml version="1.0" encoding="UTF-8"?>
<!DOCTYPE svg PUBLIC "-//W3C//DTD SVG 1.1//EN" "http://www.w3.org/Graphics/SVG/1.1/DTD/svg11.dtd">
<svg xmlns="http://www.w3.org/2000/svg" version="1.1" width="512px" height="512px" style="shape-rendering:geometricPrecision; text-rendering:geometricPrecision; image-rendering:optimizeQuality; fill-rule:evenodd; clip-rule:evenodd" xmlns:xlink="http://www.w3.org/1999/xlink">
<g><path style="opacity:0.993" fill="#fefefe" d="M 511.5,232.5 C 511.5,247.833 511.5,263.167 511.5,278.5C 500.93,366.188 457.93,432.688 382.5,478C 313.335,514.949 241.668,520.616 167.5,495C 78.3313,458.494 24.1646,392.994 5,298.5C -7.82814,205.304 20.0052,126.804 88.5,63C 158.946,5.03877 238.613,-12.6279 327.5,10C 423.767,41.265 483.6,106.098 507,204.5C 508.564,213.967 510.064,223.301 511.5,232.5 Z"/></g>
<g><path style="opacity:1" fill="#081927" d="M 252.5,109.5 C 265.824,111.488 269.658,118.488 264,130.5C 258.266,134.44 252.599,134.44 247,130.5C 242.32,121.688 244.154,114.688 252.5,109.5 Z"/></g>
<g><path style="opacity:1" fill="#071926" d="M 242.5,168.5 C 243.568,169.434 244.901,169.768 246.5,169.5C 246.5,160.833 246.5,152.167 246.5,143.5C 249.361,137.151 254.027,135.317 260.5,138C 262.333,139.833 264.167,141.667 266,143.5C 266.5,151.827 266.666,160.16 266.5,168.5C 291.254,165.71 311.42,154.71 327,135.5C 329.449,130.66 331.449,125.66 333,120.5C 341.922,114.964 348.088,117.131 351.5,127C 350.935,131.307 348.768,134.473 345,136.5C 344.5,156.831 344.333,177.164 344.5,197.5C 344.5,208.833 344.5,220.167 344.5,231.5C 342.5,234.167 340.167,236.5 337.5,238.5C 336.676,212.572 336.176,186.572 336,160.5C 335.828,156.129 335.328,151.796 334.5,147.5C 329.611,152.19 324.444,156.524 319,160.5C 318.5,193.165 318.333,225.832 318.5,258.5C 316.5,261.167 314.167,263.5 311.5,265.5C 310.883,265.389 310.383,265.056 310,264.5C 309.5,245.836 309.333,227.17 309.5,208.5C 309.833,194.484 309.499,180.484 308.5,166.5C 307.893,166.624 307.56,166.957 307.5,167.5C 302.564,170.552 297.397,173.218 292,175.5C 291.5,213.832 291.333,252.165 291.5,290.5C 289.975,293.563 287.975,296.23 285.5,298.5C 284.883,298.389 284.383,298.056 284,297.5C 283.5,257.835 283.333,218.168 283.5,178.5C 277.608,179.645 271.775,180.978 266,182.5C 265.5,231.499 265.333,280.499 265.5,329.5C 264.559,334.07 264.226,338.737 264.5,343.5C 263.188,348.015 263.188,352.682 264.5,357.5C 265.107,357.376 265.44,357.043 265.5,356.5C 283.374,332.126 304.707,311.293 329.5,294C 363.533,271.484 399.533,252.984 437.5,238.5C 438.978,238.238 440.311,238.571 441.5,239.5C 442.188,240.855 443.188,241.855 444.5,242.5C 410.499,257.503 377.499,274.669 345.5,294C 334.476,301.513 323.809,309.513 313.5,318C 300.2,332.968 286.534,347.634 272.5,362C 259.73,368.53 247.397,367.863 235.5,360C 218.5,335 197.5,314 172.5,297C 141.446,275.805 108.113,258.805 72.5,246C 71.0267,245.29 70.3601,244.124 70.5,242.5C 71.3228,240.013 72.3228,237.679 73.5,235.5C 109.313,249.407 143.647,266.573 176.5,287C 204.206,305.037 227.706,327.537 247,354.5C 247.463,345.158 247.296,335.825 246.5,326.5C 246.5,293.167 246.5,259.833 246.5,226.5C 246.5,211.833 246.5,197.167 246.5,182.5C 245.167,182.5 243.833,182.5 242.5,182.5C 237.761,181.815 233.094,180.815 228.5,179.5C 228.44,178.957 228.107,178.624 227.5,178.5C 226.174,192.661 226.174,206.661 227.5,220.5C 227.805,245.866 227.472,271.199 226.5,296.5C 223.601,293.048 220.934,289.382 218.5,285.5C 218.833,248.827 218.5,212.161 217.5,175.5C 212.314,173.075 207.314,170.409 202.5,167.5C 202.44,166.957 202.107,166.624 201.5,166.5C 200.5,196.493 200.167,226.493 200.5,256.5C 200.5,258.833 200.5,261.167 200.5,263.5C 197.529,260.192 194.529,256.859 191.5,253.5C 191.667,222.165 191.5,190.832 191,159.5C 185.633,154.468 180.633,149.135 176,143.5C 175.826,174.238 175.326,204.905 174.5,235.5C 172.142,233.471 169.808,231.471 167.5,229.5C 167.829,216.989 167.495,204.655 166.5,192.5C 166.833,173.821 166.5,155.155 165.5,136.5C 159.607,134.048 157.441,129.715 159,123.5C 164.307,116.873 170.807,115.706 178.5,120C 179.701,120.903 180.535,122.069 181,123.5C 181.333,126.5 181.667,129.5 182,132.5C 196.656,153.585 216.823,165.585 242.5,168.5 Z"/></g>
<g><path style="opacity:1" fill="#fdfdfd" d="M 191.5,253.5 C 185.861,247.526 180.195,241.526 174.5,235.5C 175.326,204.905 175.826,174.238 176,143.5C 180.633,149.135 185.633,154.468 191,159.5C 191.5,190.832 191.667,222.165 191.5,253.5 Z"/></g>
<g><path style="opacity:1" fill="#fafafa" d="M 337.5,238.5 C 331.139,245.193 324.806,251.86 318.5,258.5C 318.333,225.832 318.5,193.165 319,160.5C 324.444,156.524 329.611,152.19 334.5,147.5C 335.328,151.796 335.828,156.129 336,160.5C 336.176,186.572 336.676,212.572 337.5,238.5 Z"/></g>
<g><path style="opacity:1" fill="#404f59" d="M 246.5,143.5 C 246.5,152.167 246.5,160.833 246.5,169.5C 244.901,169.768 243.568,169.434 242.5,168.5C 243.5,168.5 244.5,168.5 245.5,168.5C 245.174,159.983 245.507,151.65 246.5,143.5 Z"/></g>
<g><path style="opacity:1" fill="#fcfcfc" d="M 202.5,167.5 C 207.314,170.409 212.314,173.075 217.5,175.5C 218.5,212.161 218.833,248.827 218.5,285.5C 212.152,278.482 206.152,271.149 200.5,263.5C 200.5,261.167 200.5,258.833 200.5,256.5C 201.167,226.833 201.833,197.167 202.5,167.5 Z"/></g>
<g><path style="opacity:1" fill="#f7f7f7" d="M 307.5,167.5 C 308.167,181.167 308.833,194.833 309.5,208.5C 309.333,227.17 309.5,245.836 310,264.5C 310.383,265.056 310.883,265.389 311.5,265.5C 305.071,274.025 298.405,282.358 291.5,290.5C 291.333,252.165 291.5,213.832 292,175.5C 297.397,173.218 302.564,170.552 307.5,167.5 Z"/></g>
<g><path style="opacity:1" fill="#fdfdfd" d="M 228.5,179.5 C 233.094,180.815 237.761,181.815 242.5,182.5C 243.209,183.404 244.209,183.737 245.5,183.5C 245.171,198.01 245.504,212.343 246.5,226.5C 246.5,259.833 246.5,293.167 246.5,326.5C 239.846,316.537 233.18,306.537 226.5,296.5C 227.472,271.199 227.805,245.866 227.5,220.5C 227.171,206.656 227.504,192.99 228.5,179.5 Z"/></g>
<g><path style="opacity:1" fill="#f9f9fa" d="M 285.5,298.5 C 278.826,308.838 272.159,319.172 265.5,329.5C 265.333,280.499 265.5,231.499 266,182.5C 271.775,180.978 277.608,179.645 283.5,178.5C 283.333,218.168 283.5,257.835 284,297.5C 284.383,298.056 284.883,298.389 285.5,298.5 Z"/></g>
<g><path style="opacity:1" fill="#ea693c" d="M 165.5,227.5 C 165.833,228.5 166.5,229.167 167.5,229.5C 169.808,231.471 172.142,233.471 174.5,235.5C 180.195,241.526 185.861,247.526 191.5,253.5C 194.529,256.859 197.529,260.192 200.5,263.5C 206.152,271.149 212.152,278.482 218.5,285.5C 220.934,289.382 223.601,293.048 226.5,296.5C 233.18,306.537 239.846,316.537 246.5,326.5C 247.296,335.825 247.463,345.158 247,354.5C 227.706,327.537 204.206,305.037 176.5,287C 143.647,266.573 109.313,249.407 73.5,235.5C 74.1174,235.389 74.6174,235.056 75,234.5C 78.0711,225.785 81.2378,217.119 84.5,208.5C 131.364,228.579 172.698,256.579 208.5,292.5C 202.472,283.962 195.472,276.129 187.5,269C 162.301,245.733 134.635,225.9 104.5,209.5C 102.311,200.57 104.478,192.903 111,186.5C 130.448,198.447 148.615,212.113 165.5,227.5 Z"/></g>
<g><path style="opacity:1" fill="#ea693c" d="M 301.5,297.5 C 337.554,260.544 379.388,231.877 427,211.5C 430.43,220.639 433.93,229.639 437.5,238.5C 399.533,252.984 363.533,271.484 329.5,294C 304.707,311.293 283.374,332.126 265.5,356.5C 264.515,352.366 264.182,348.032 264.5,343.5C 264.226,338.737 264.559,334.07 265.5,329.5C 272.159,319.172 278.826,308.838 285.5,298.5C 287.975,296.23 289.975,293.563 291.5,290.5C 298.405,282.358 305.071,274.025 311.5,265.5C 314.167,263.5 316.5,261.167 318.5,258.5C 324.806,251.86 331.139,245.193 337.5,238.5C 340.167,236.5 342.5,234.167 344.5,231.5C 345.492,231.672 346.158,231.338 346.5,230.5C 363.346,215.322 381.346,201.656 400.5,189.5C 406.682,195.547 409.182,202.88 408,211.5C 371.296,231.854 338.296,257.187 309,287.5C 306.259,290.729 303.759,294.062 301.5,297.5 Z"/></g>
<g><path style="opacity:1" fill="#bcc1c5" d="M 307.5,167.5 C 307.56,166.957 307.893,166.624 308.5,166.5C 309.499,180.484 309.833,194.484 309.5,208.5C 308.833,194.833 308.167,181.167 307.5,167.5 Z"/></g>
<g><path style="opacity:1" fill="#5e6a73" d="M 202.5,167.5 C 201.833,197.167 201.167,226.833 200.5,256.5C 200.167,226.493 200.5,196.493 201.5,166.5C 202.107,166.624 202.44,166.957 202.5,167.5 Z"/></g>
<g><path style="opacity:1" fill="#45535d" d="M 228.5,179.5 C 227.504,192.99 227.171,206.656 227.5,220.5C 226.174,206.661 226.174,192.661 227.5,178.5C 228.107,178.624 228.44,178.957 228.5,179.5 Z"/></g>
<g><path style="opacity:1" fill="#a1a5a9" d="M 166.5,192.5 C 167.495,204.655 167.829,216.989 167.5,229.5C 166.5,229.167 165.833,228.5 165.5,227.5C 166.495,216.012 166.828,204.345 166.5,192.5 Z"/></g>
<g><path style="opacity:1" fill="#aeb4b8" d="M 242.5,182.5 C 243.833,182.5 245.167,182.5 246.5,182.5C 246.5,197.167 246.5,211.833 246.5,226.5C 245.504,212.343 245.171,198.01 245.5,183.5C 244.209,183.737 243.209,183.404 242.5,182.5 Z"/></g>
<g><path style="opacity:1" fill="#b5b8bc" d="M 344.5,197.5 C 345.167,208.5 345.833,219.5 346.5,230.5C 346.158,231.338 345.492,231.672 344.5,231.5C 344.5,220.167 344.5,208.833 344.5,197.5 Z"/></g>
<g><path style="opacity:1" fill="#3dd3f3" d="M 454.5,267.5 C 404.476,278.019 359.143,298.519 318.5,329C 313.959,333.709 309.292,338.209 304.5,342.5C 335.921,322.798 369.588,306.631 405.5,294C 421.857,288.159 438.191,282.659 454.5,277.5C 459.5,276.167 464.5,274.833 469.5,273.5C 470.261,282.825 470.928,292.158 471.5,301.5C 431.955,306.553 393.288,315.387 355.5,328C 325.941,338.274 298.941,352.941 274.5,372C 260.489,378.466 246.822,377.799 233.5,370C 216.498,356.155 197.832,344.822 177.5,336C 132.531,317.257 85.8639,305.757 37.5,301.5C 39.1667,301.5 40.8333,301.5 42.5,301.5C 42.5,292.167 42.5,282.833 42.5,273.5C 47.8319,274.5 53.1652,275.5 58.5,276.5C 76.965,283.046 95.6317,289.546 114.5,296C 151.672,309.914 186.339,327.914 218.5,350C 174.147,305.655 120.814,278.489 58.5,268.5C 56.4281,267.462 54.7615,265.962 53.5,264C 54.303,256.185 54.9697,248.352 55.5,240.5C 60.5157,241.058 65.5157,241.725 70.5,242.5C 70.3601,244.124 71.0267,245.29 72.5,246C 108.113,258.805 141.446,275.805 172.5,297C 197.5,314 218.5,335 235.5,360C 247.397,367.863 259.73,368.53 272.5,362C 286.534,347.634 300.2,332.968 313.5,318C 323.809,309.513 334.476,301.513 345.5,294C 377.499,274.669 410.499,257.503 444.5,242.5C 448.971,241.632 453.304,240.299 457.5,238.5C 460.149,247.374 461.149,256.374 460.5,265.5C 458.55,266.372 456.55,267.039 454.5,267.5 Z"/></g>
<g><path style="opacity:1" fill="#041928" d="M 58.5,268.5 C 120.814,278.489 174.147,305.655 218.5,350C 186.339,327.914 151.672,309.914 114.5,296C 95.6317,289.546 76.965,283.046 58.5,276.5C 58.5,273.833 58.5,271.167 58.5,268.5 Z"/></g>
<g><path style="opacity:1" fill="#041927" d="M 454.5,267.5 C 453.253,270.867 453.253,274.201 454.5,277.5C 438.191,282.659 421.857,288.159 405.5,294C 369.588,306.631 335.921,322.798 304.5,342.5C 309.292,338.209 313.959,333.709 318.5,329C 359.143,298.519 404.476,278.019 454.5,267.5 Z"/></g>
<g><path style="opacity:1" fill="#fbdbd1" d="M 208.5,292.5 C 211.243,294.239 213.243,296.573 214.5,299.5C 211.757,297.761 209.757,295.427 208.5,292.5 Z"/></g>
<g><path style="opacity:1" fill="#f5ae95" d="M 214.5,299.5 C 216.757,300.562 217.923,302.228 218,304.5C 216.198,303.211 215.031,301.544 214.5,299.5 Z"/></g>
<g><path style="opacity:1" fill="#041725" d="M 262.5,393.5 C 258.167,393.5 253.833,393.5 249.5,393.5C 241.927,392.697 234.927,390.197 228.5,386C 213.353,372.582 196.353,361.915 177.5,354C 129.088,334.148 78.7549,321.982 26.5,317.5C 20.5487,305.767 24.2154,300.433 37.5,301.5C 85.8639,305.757 132.531,317.257 177.5,336C 197.832,344.822 216.498,356.155 233.5,370C 246.822,377.799 260.489,378.466 274.5,372C 298.941,352.941 325.941,338.274 355.5,328C 393.288,315.387 431.955,306.553 471.5,301.5C 479.222,298.502 485.055,300.502 489,307.5C 489.667,309.167 489.667,310.833 489,312.5C 486.441,315.531 483.274,317.698 479.5,319C 405.237,322.863 337.904,346.197 277.5,389C 272.702,391.211 267.702,392.711 262.5,393.5 Z"/></g>
<g><path style="opacity:1" fill="#f9cec0" d="M 301.5,297.5 C 300.287,300.225 298.454,302.559 296,304.5C 296.772,301.536 298.605,299.202 301.5,297.5 Z"/></g>
<g><path style="opacity:1" fill="#763e2f" d="M 264.5,343.5 C 264.182,348.032 264.515,352.366 265.5,356.5C 265.44,357.043 265.107,357.376 264.5,357.5C 263.188,352.682 263.188,348.015 264.5,343.5 Z"/></g>
<g><path style="opacity:1" fill="#929aa0" d="M 249.5,393.5 C 253.833,393.5 258.167,393.5 262.5,393.5C 260.952,394.794 258.952,395.461 256.5,395.5C 254.5,395.333 252.5,395.167 250.5,395C 249.944,394.617 249.611,394.117 249.5,393.5 Z"/></g>
</svg>
